<svg width="5334" height="3152" viewBox="0 0 5334 3152" fill="none" xmlns="http://www.w3.org/2000/svg">
<path fill-rule="evenodd" clip-rule="evenodd" d="M5333.86 1.00586H0V3151.89H5333.86V1.00586Z" fill="#0B2447"/>
<path fill-rule="evenodd" clip-rule="evenodd" d="M0 0.994995H836.635C836.635 463.056 462.061 837.626 0 837.626V0.994995Z" fill="#A7B9FF"/>
<path fill-rule="evenodd" clip-rule="evenodd" d="M0 837.626C462.061 837.626 836.635 463.056 836.635 0.994873H1794.48C1794.48 992.059 991.068 1795.48 0 1795.48V837.626Z" fill="#8198F1"/>
<path fill-rule="evenodd" clip-rule="evenodd" d="M0 1795.48C991.066 1795.48 1794.48 992.059 1794.48 0.995117H2995.81C2995.81 1655.53 1654.54 2996.8 0 2996.8V1795.48Z" fill="#576CBC"/>
<path fill-rule="evenodd" clip-rule="evenodd" d="M0 2996.8C1654.53 2996.8 2995.79 1655.53 2995.79 1.00562H4291.51C4291.51 1246.43 3760.99 2367.95 2913.62 3151.89H0V2996.8Z" fill="#19376D"/>
</svg>
